<svg width="7405" height="3187" viewBox="0 0 7405 3187" fill="none" xmlns="http://www.w3.org/2000/svg">
<path d="M1587 553.025C1587 541.053 1600.34 533.906 1610.31 540.534L2312.18 1007.2C2326.12 1016.47 2334.5 1032.1 2334.5 1048.84V1867.66C2334.5 1892.31 2322.38 1915.4 2302.08 1929.4L1625.91 2395.71C1601.55 2412.51 1587 2440.21 1587 2469.8V3138.53C1587 3150.3 1574.06 3157.48 1564.07 3151.26L861.566 2713.72C846.909 2704.59 838 2688.54 838 2671.28V1993.67C838 1964.15 852.476 1936.51 876.74 1919.69L1554.72 1449.91C1574.94 1435.9 1587 1412.86 1587 1388.26V553.025Z" fill="#2952E7"/>
<path d="M749 15.0251C749 3.0531 762.336 -4.09442 772.305 2.53415L1474.18 469.201C1488.12 478.469 1496.5 494.098 1496.5 510.838V1329.66C1496.5 1354.31 1484.38 1377.4 1464.08 1391.4L787.905 1857.71C763.546 1874.51 749 1902.21 749 1931.8V2600.53C749 2612.3 736.061 2619.48 726.07 2613.26L23.5663 2175.72C8.90941 2166.59 0 2150.54 0 2133.28V1455.67C0 1426.15 14.4763 1398.51 38.7403 1381.69L716.716 911.909C736.936 897.898 749 874.862 749 850.262V15.0251Z" fill="#6726CD"/>
<path opacity="0.96" d="M7134.76 2091.5V1432.43C7134.76 1357.94 7116.99 1300.2 7081.46 1259.2C7045.92 1217.52 6997.41 1196.67 6935.91 1196.67C6896.96 1196.67 6862.45 1205.9 6832.38 1224.35C6803 1242.8 6779.77 1268.77 6762.68 1302.25C6746.28 1335.05 6738.08 1373.66 6738.08 1418.07L6623.28 1344.28C6623.28 1267.74 6641.05 1200.43 6676.58 1142.35C6712.12 1084.27 6759.95 1039.17 6820.08 1007.05C6880.9 974.25 6948.21 957.85 7022.01 957.85C7147.06 957.85 7242.04 995.092 7306.96 1069.57C7371.87 1143.37 7404.33 1240.75 7404.33 1361.7V2091.5H7134.76ZM5801.23 2091.5V984.5H6039.03V1344.28H6072.86V2091.5H5801.23ZM6469.53 2091.5V1432.43C6469.53 1358.63 6451.77 1300.88 6416.23 1259.2C6380.7 1217.52 6331.84 1196.67 6269.66 1196.67C6210.21 1196.67 6162.37 1217.17 6126.16 1258.17C6090.62 1299.17 6072.86 1352.47 6072.86 1418.07L5958.06 1338.12C5958.06 1265.69 5975.82 1201.12 6011.36 1144.4C6047.57 1087 6096.09 1041.56 6156.91 1008.07C6217.72 974.592 6286.06 957.85 6361.91 957.85C6447.32 957.85 6517.71 975.958 6573.06 1012.17C6629.09 1048.39 6670.43 1097.25 6697.08 1158.75C6724.42 1219.57 6738.08 1287.22 6738.08 1361.7V2091.5H6469.53Z" fill="black"/>
<path opacity="0.96" d="M5048.47 2091.5V984.5H5286.27V1255.1L5259.62 1220.25C5273.97 1181.98 5292.76 1147.47 5315.99 1116.72C5339.91 1085.29 5368.61 1059.32 5402.09 1038.82C5429.42 1021.74 5458.81 1008.76 5490.24 999.875C5522.36 990.308 5555.16 984.5 5588.64 982.45C5622.81 979.717 5656.63 980.4 5690.12 984.5V1235.62C5658.68 1226.06 5622.47 1222.98 5581.47 1226.4C5540.47 1229.82 5503.22 1240.07 5469.74 1257.15C5436.26 1272.87 5408.24 1293.71 5385.69 1319.67C5363.82 1345.64 5347.08 1376.05 5335.47 1410.9C5324.53 1445.75 5319.07 1484.36 5319.07 1526.72V2091.5H5048.47Z" fill="black"/>
<path opacity="0.96" d="M4357.87 2583.5V2331.35H4408.1C4470.28 2331.35 4513.33 2317 4537.25 2288.3C4561.85 2260.28 4574.15 2219.28 4574.15 2165.3V984.5H4842.7V2293.43C4842.7 2382.26 4815.71 2452.64 4761.72 2504.57C4707.74 2557.19 4633.94 2583.5 4540.32 2583.5H4357.87ZM4701.48 826.65C4631.16 826.65 4574.15 769.639 4574.15 699.314C4574.15 635.051 4622.03 580.859 4685.8 572.946L4709.55 570L4731.19 572.731C4794.91 580.771 4842.7 634.964 4842.7 699.189C4842.7 769.584 4785.63 826.65 4715.24 826.65H4709.55H4701.48Z" fill="black"/>
<path opacity="0.96" d="M4067.52 2091.5V1432.43C4067.52 1357.94 4049.76 1300.2 4014.23 1259.2C3978.69 1217.52 3930.18 1196.67 3868.68 1196.67C3829.73 1196.67 3795.22 1205.9 3765.15 1224.35C3735.77 1242.8 3712.53 1268.77 3695.45 1302.25C3679.05 1335.05 3670.85 1373.66 3670.85 1418.07L3556.05 1344.28C3556.05 1267.74 3573.82 1200.43 3609.35 1142.35C3644.88 1084.27 3692.72 1039.17 3752.85 1007.05C3813.67 974.25 3880.98 957.85 3954.78 957.85C4079.83 957.85 4174.81 995.092 4239.73 1069.57C4304.64 1143.37 4337.1 1240.75 4337.1 1361.7V2091.5H4067.52ZM2734 2091.5V984.5H2971.8V1344.28H3005.63V2091.5H2734ZM3402.3 2091.5V1432.43C3402.3 1358.63 3384.53 1300.88 3349 1259.2C3313.47 1217.52 3264.61 1196.67 3202.42 1196.67C3142.97 1196.67 3095.14 1217.17 3058.92 1258.17C3023.39 1299.17 3005.63 1352.47 3005.63 1418.07L2890.82 1338.12C2890.82 1265.69 2908.59 1201.12 2944.12 1144.4C2980.34 1087 3028.86 1041.56 3089.67 1008.07C3150.49 974.592 3218.83 957.85 3294.68 957.85C3380.09 957.85 3450.48 975.958 3505.83 1012.17C3561.86 1048.39 3603.2 1097.25 3629.85 1158.75C3657.18 1219.57 3670.85 1287.22 3670.85 1361.7V2091.5H3402.3Z" fill="black"/>
<g opacity="0.38">
<path d="M1638 586.025C1638 574.053 1651.34 566.906 1661.31 573.534L2363.18 1040.2C2377.12 1049.47 2385.5 1065.1 2385.5 1081.84V1900.66C2385.5 1925.31 2373.38 1948.4 2353.08 1962.4L1676.91 2428.71C1652.55 2445.51 1638 2473.21 1638 2502.8V3171.53C1638 3183.3 1625.06 3190.48 1615.07 3184.26L912.566 2746.72C897.909 2737.59 889 2721.54 889 2704.28V2026.67C889 1997.15 903.476 1969.51 927.74 1952.69L1605.72 1482.91C1625.94 1468.9 1638 1445.86 1638 1421.26V586.025Z" fill="#2952E7"/>
<path d="M800 48.0251C800 36.0531 813.336 28.9056 823.305 35.5342L1525.18 502.201C1539.12 511.469 1547.5 527.098 1547.5 543.838V1362.66C1547.5 1387.31 1535.38 1410.4 1515.08 1424.4L838.905 1890.71C814.546 1907.51 800 1935.21 800 1964.8V2633.53C800 2645.3 787.061 2652.48 777.07 2646.26L74.5663 2208.72C59.9094 2199.59 51 2183.54 51 2166.28V1488.67C51 1459.15 65.4763 1431.51 89.7403 1414.69L767.716 944.909C787.936 930.898 800 907.862 800 883.262V48.0251Z" fill="#6726CD"/>
</g>
</svg>
